<?xml version="1.0" encoding="UTF-8"?>
<svg id="Ebene_1" data-name="Ebene 1" xmlns="http://www.w3.org/2000/svg" xmlns:xlink="http://www.w3.org/1999/xlink" viewBox="0 0 842.04 595.44">
  <defs>
    <style>
      .cls-1, .cls-2 {
        fill: none;
      }

      .cls-2 {
        stroke: #1d1d1b;
        stroke-miterlimit: 10;
        stroke-width: .25px;
      }

      .cls-3 {
        clip-path: url(#clippath-1);
      }

      .cls-4 {
        clip-path: url(#clippath-2);
      }

      .cls-5 {
        fill: #fff;
      }

      .cls-6 {
        fill: #1a1a1a;
      }

      .cls-7 {
        clip-path: url(#clippath);
      }
    </style>
    <clipPath id="clippath">
      <rect class="cls-1" width="842.04" height="595.44"/>
    </clipPath>
    <clipPath id="clippath-1">
      <rect class="cls-1" x="344.29" y="238.75" width="130.08" height="153.05"/>
    </clipPath>
    <clipPath id="clippath-2">
      <rect class="cls-1" width="842.04" height="595.44"/>
    </clipPath>
  </defs>
  <g class="cls-7">
    <g>
      <path class="cls-6" d="M522.65,388.64c-47.06,62.59-135.95,75.18-198.54,28.12-62.59-47.06-75.18-135.95-28.11-198.54,47.06-62.59,135.95-75.17,198.54-28.11,62.59,47.06,75.18,135.95,28.11,198.54"/>
      <circle class="cls-2" cx="409.32" cy="303.43" r="141.79" transform="translate(54.31 668.92) rotate(-82.38)"/>
      <path class="cls-5" d="M480.33,211.07c-4.22-3.17-8.65-5.98-13.23-8.45-.04-.02-.08-.05-.12-.06-24.18-13.95-51.23-17.36-76.54-12.09-24.78,5.14-47.9,18.27-65.08,40.76-3.35,4.39-6.37,8.96-9.03,13.65-.34.59-.67,1.17-.99,1.76-.04.08-.08.15-.12.22-.38.69-.74,1.38-1.1,2.06-.81,1.55-1.58,3.12-2.31,4.7-22.03,47.15-11.92,104.83,30.74,138.21,23.41,18.32,43.07,26.01,68.71,25.95-27.07,1.95-48.42-5.3-72.93-24.46-48.8-38.18-56.97-110.24-18.24-160.96,38.72-50.7,109.69-60.85,158.49-22.68.59.46,1.17.92,1.75,1.4"/>
      <path class="cls-5" d="M311.46,223.13c-3.7,4.42-7.03,9.11-10.01,13.98-.02.04-.06.08-.07.13-16.69,25.65-22.3,55.21-18.5,83.46,3.71,27.66,16.1,54.05,38.95,74.56,4.46,4,9.13,7.65,13.97,10.91.6.41,1.21.82,1.82,1.21.08.05.16.1.23.15.71.47,1.42.91,2.13,1.36,1.6,1,3.23,1.96,4.86,2.88,48.92,27.59,111.44,20.51,150.28-24.13,21.32-24.5,33.63-53.18,35.42-81.43.13,29.96-11.83,60.53-34.14,86.18-44.43,51.07-122.22,54.99-173.75,8.76-51.51-46.22-57.25-125.11-12.82-176.18.53-.62,1.07-1.22,1.62-1.83"/>
    </g>
  </g>
  <g class="cls-3">
    <path class="cls-5" d="M410.82,391.78c-18.64-.98-67.78-37.28-66.6-69.57.81-22.37,25.83-44.14,45.92-54.16,3.94-1.97,5.8-8.34,7.33-14.01,1-3.73.91-7.67-.26-11.35l-1.26-3.94,9.26,5.71,2.32,1.43.5.31c4.05,2.5,8.64,3.98,13.38,4.31l4.39.3.25,3.85c.29,4.57,2.52,8.8,6.11,11.64,10.63,8.39,23.41,18.89,33.19,28.05,8.24,7.73,7.97,13.71,8.78,20.23,3.1,24.96-40.41,78.42-63.3,77.2"/>
  </g>
  <g class="cls-4">
    <path class="cls-5" d="M405.62,241.82c-.53-.36-8.19-3.85-9.21-5.44-1.28-2.94-.64-3.92-6.43-8.93-1.31-1.13-2.67-2.18-3.92-3.12-4.11-2.96-5.62-5.56-7.32-7.8,2.34,3.77,11.69,9.02,23.58,15.76,1.24-7.24-8.92-15.7,9.3-25.39-13.82,8.74-1.53,17.3,2.44,25.69,2.11,5.01,6.49,5.97,10.71,4.82,4.72-2.52,7.57-5.58,13.15-9.19-.62.8-1.17,1.59-1.67,2.36-4.97,12.39-6.35,20.39-18.48,16.34"/>
    <path class="cls-5" d="M486.28,314.3c-2.16-14.41-13.06-25.1-23.33-34.52-5.13-4.71-11.01-8.36-16.36-12.78-2.72-2.25-5.55-4.81-7.31-7.93-.89-1.57-1.53-3.39-1.3-5.22.19-1.48,8.49-5.08,8.7-1.15.1,1.95.1,1.83,0,0-.26-4.89-5.56-5.98-9.46-4.88-6.41,1.8-4.98,8.69-1.86,13.24,4.44,6.46,10.76,10.49,16.82,15.2,6.97,5.41,13.75,12.03,19.23,18.97,25.83,32.73-9.74,68.71-33.83,89.95-1.93,1.7-1.36,1.2,0,0,19.81-17.47,53.1-41.52,48.69-70.89"/>
    <path class="cls-6" d="M423.56,328.03c-.5-1.77-2.54-5.58-4.52-2.69-2.22,3.25-8.37,8.62-12.74,7.72-3-.61-4.39-6.28-5.08-9.19,3.4-.29,6.79,1.16,10.18.32,1.68-.42,2.77-4.65,3.18-6.12-1.72,0-4.51-.46-6.2-.45-2.85.01-4.95.12-7.81.13.1-.98.31,1.25.24.26,2.67,0,5.34-.04,8.02-.05,1.87-.01,3.82.12,5.75.12-.36-1.85-1.52-3.3-3.18-2.88-3.56.88-7.11.44-10.68.71.45-2.05,1.33-7.9,3.02-9.25,4.49-3.58,10.35-2.74,14.62.65,2.48,1.97,3.89-3.96,4.06-5.24.39-2.88.2-7.24-2.3-9.23-6.55-5.2-15.69-4.4-21.06,2.14-3.76,4.58-4.97,12.84-5.24,19.06-2.92-.1-5.85-.37-8.8-.87-1.66-.28-2.79,1.19-3.21,3.08,3.96,1.12,8.03,1.51,12.14,1.65-.08.99-.06-2.98.03-2-4.12-.15-8.18,1.39-12.17.34.34,1.86,1.31,6.6,3.21,6.92,3.11.53,6.2.82,9.29.89.63,7.01,2.27,18.15,7.87,22.29,6.78,5.02,16.35-2.41,20.21-8.07,1.91-2.8,2.08-7.06,1.18-10.26"/>
  </g>
</svg>