<?xml version="1.0" encoding="UTF-8"?>
<svg id="Ebene_1" data-name="Ebene 1" xmlns="http://www.w3.org/2000/svg" viewBox="0 0 323.31 397.58">
  <defs>
    <style>
      .cls-1 {
        stroke-width: 2px;
      }

      .cls-1, .cls-2 {
        stroke: #000;
        stroke-miterlimit: 10;
      }

      .cls-2 {
        fill: none;
        stroke-width: 10px;
      }
    </style>
  </defs>
  <path class="cls-1" d="M165.13,3.93c-.01,2.11,0,4.22,0,6.33,0,4.1,0,8.2,0,12.3,0,5.83,0,11.67-.01,17.5v21.91c-.02,8.51-.02,17.02-.03,25.54l-.02,28.37c0,10.14-.01,20.28-.02,30.42,0,10.56-.01,21.12-.02,31.69s-.01,21.44-.02,32.16-.01,21.23-.02,31.85-.01,20.5-.02,30.75c0,9.62-.01,19.24-.02,28.87,0,8.73-.01,17.46-.02,26.19,0,7.58,0,15.16-.01,22.73,0,6.16,0,12.32-.01,18.49v13.45c0,2.54-5.01,11.09-5.01,13.63,0,.07,5.02.46,5,.47,83.48-10.72,149.98-111.25,157.37-231.18l.04-73.46c-.99.13-1.98.24-2.98.34-6.08.64-12.28.97-18.58.97-14.99-.01-30-1.91-44.57-5.86-13.36-3.62-26.37-8.95-38.49-16.21-10.96-6.57-21.22-14.73-29.96-24.63-7.94-8.99-14.6-19.46-18.99-31.12-.74-1.96-1.41-3.95-2.01-5.97-.55-1.85-1.35-3.62-1.62-5.55Z"/>
  <path class="cls-2" d="M162.69,5.11l.21,387.22c0,.1-.08.17-.18.16C79.34,381.59,12.99,286.05,5.67,166.21c-.44-7.27-.67-14.62-.67-22.05s.23-14.79.67-22.05c.6-9.85,1.6-19.53,2.98-29.01,6.08.64,12.28.98,18.58.98,67.5,0,123.66-38.35,135.47-88.97.03-.14,0-.14,0,0Z"/>
</svg>