<?xml version="1.0" encoding="UTF-8"?>
<svg id="Ebene_1" data-name="Ebene 1" xmlns="http://www.w3.org/2000/svg" viewBox="0 0 842.04 595.44">
  <defs>
    <style>
      .cls-1 {
        fill: #e9476d;
      }

      .cls-2 {
        fill: #fff;
      }

      .cls-3 {
        fill: #1a1a1a;
        stroke: #1d1d1b;
        stroke-miterlimit: 10;
        stroke-width: .25px;
      }
    </style>
  </defs>
  <circle class="cls-3" cx="421.02" cy="292.46" r="141.79"/>
  <path class="cls-2" d="M492.02,200.1c-4.22-3.17-8.65-5.98-13.23-8.45-.04-.02-.08-.05-.12-.06-24.18-13.95-51.23-17.36-76.54-12.09-24.78,5.14-47.9,18.27-65.08,40.75-3.35,4.39-6.37,8.96-9.03,13.65-.34.59-.67,1.17-.99,1.76-.04.08-.08.15-.12.22-.38.69-.74,1.38-1.1,2.06-.81,1.55-1.58,3.12-2.31,4.7-22.03,47.15-11.92,104.83,30.74,138.2,23.41,18.32,43.07,26.01,68.71,25.95-27.07,1.95-48.42-5.3-72.93-24.46-48.8-38.17-56.97-110.24-18.24-160.96,38.72-50.7,109.69-60.85,158.49-22.68.59.46,1.17.92,1.75,1.4Z"/>
  <path class="cls-2" d="M323.15,212.17c-3.7,4.43-7.03,9.11-10.01,13.98-.02.04-.06.08-.07.13-16.69,25.65-22.3,55.21-18.5,83.46,3.71,27.66,16.1,54.05,38.95,74.56,4.46,4,9.13,7.65,13.97,10.91.6.42,1.21.82,1.81,1.21.08.05.16.1.23.15.71.47,1.42.91,2.13,1.36,1.6,1,3.22,1.96,4.86,2.88,48.92,27.59,111.44,20.51,150.28-24.13,21.32-24.5,33.63-53.18,35.43-81.43.13,29.96-11.83,60.53-34.14,86.18-44.43,51.07-122.22,54.99-173.75,8.76-51.51-46.22-57.25-125.11-12.82-176.18.53-.62,1.07-1.22,1.62-1.83Z"/>
  <path class="cls-1" d="M326.02,234.21c.3-.51.61-1.02.92-1.53-.66,1.08-1.29,2.17-1.91,3.27.32-.58.65-1.16.99-1.74Z"/>
  <path class="cls-1" d="M504.46,368.59s-.01.02-.03.03t.01-.02h.02Z"/>
  <path class="cls-2" d="M475.6,313.26l-47.75,64.07-47.75-64.07c-46.34-62.17,1.41-126.23,47.75-64.07,47.03-63.09,94.78.98,47.75,64.07Z"/>
  <path class="cls-3" d="M429.27,253.34c43.05-57.75,85.35.19,42.3,57.94l-43.71,58.65-.02-.03,33.74-50.75c32.18-45.6,19.71-115.31-32.31-65.8"/>
</svg>