<?xml version="1.0" encoding="UTF-8"?>
<svg xmlns="http://www.w3.org/2000/svg" viewBox="0 0 718.59 537.38">
  <defs>
    <style>
      .cls-1 {
        stroke: #000;
        stroke-miterlimit: 10;
        stroke-width: 32px;
      }

      .cls-1, .cls-2 {
        fill: #fff;
      }

      .cls-3 {
        opacity: .49;
      }
    </style>
  </defs>
  <g id="Ebene_4" data-name="Ebene 4" class="cls-3">
    <path class="cls-2" d="M25.67,30.58h654.02c11.71,0,21.21,9.5,21.21,21.21v386.8c0,3.64-2.95,6.59-6.59,6.59H20.79c-3.64,0-6.59-2.95-6.59-6.59V42.05c0-6.33,5.14-11.46,11.46-11.46Z"/>
  </g>
  <g id="Ebene_3" data-name="Ebene 3">
    <path class="cls-1" d="M687.1,82.97l-.7,412.93c-35.83-31.16-92.32-46.49-156.74-46.49-70.5,0-132.33,24.16-167,60.45-.01.01-.03.02-.05.02h-5.68c-33.92-37.13-95.63-61.96-166.14-61.96-64.58,0-121.71,20.52-156.94,52.55l-.06-416.46c8.34-8.96,18.38-17.22,29.83-24.62,37.08-23.98,89.02-38.88,146.51-38.88s109.43,14.9,146.52,38.88c1.24.8,2.46,1.61,3.66,2.43,1.07-.82,2.15-1.63,3.25-2.43,36.56-26.63,89.72-43.4,148.88-43.4s112.32,16.76,148.89,43.4c9.87,7.18,18.52,15.09,25.77,23.58Z"/>
    <line class="cls-1" x1="360.31" y1="62.53" x2="360.92" y2="509.8"/>
    <line class="cls-1" x1="16.01" y1="109.75" x2="16.84" y2="514.41"/>
    <line class="cls-1" x1="702.56" y1="117.64" x2="701.87" y2="507.44"/>
    <line class="cls-1" x1=".39" y1="521.38" x2="717.36" y2="520.91"/>
    <path class="cls-1" d="M49.57,69.48c-12.68,11.07-32.38,27.17-33.62,41.9"/>
    <path class="cls-1" d="M681.63,76.95c9.67,9.72,19.71,23.46,21,41.59"/>
  </g>
</svg>