<?xml version="1.0" encoding="UTF-8"?>
<svg id="Ebene_1" data-name="Ebene 1" xmlns="http://www.w3.org/2000/svg" viewBox="0 0 708.63 611.99">
  <path d="M383.29,339.27v254.68h-55.6c-19.95,0-36.12-12.38-36.12-27.65v-202.59c0-13.49,14.3-24.44,31.94-24.44h59.78Z"/>
  <path d="M680.17,451.24c16.97,4.55,29.11,20.57,27.55,36.37-1.56,15.82-16.71,29.71-34.34,31.48,23.47,2.08,40.24,27.42,31.01,46.84-7.91,16.64-28.78,24.72-48.12,29.96-71.26,19.31-148.22,21.23-220.66,5.92-9.1-1.92-18.13-4.12-27.06-6.58-2.8-.77-9.19-1.48-10.94-3.65-1.71-2.11-.23-9.42-.25-12.02-.11-18.32-.23-36.63-.34-54.95-.23-36.63-.45-73.26-.68-109.89-.09-14.65-.18-29.3-.27-43.96-.09-13.99.04-28.75,7.89-40.85,8.05-12.41,22.77-19.85,35-29.13,41.07-31.17,53.3-82.24,67.17-128.81,3.32-11.15,7-22.49,14.44-31.92s19.42-16.75,32.31-16.37c14.3.43,26.63,10.36,32.25,22.13,5.62,11.77,5.64,25.06,4.25,37.8-5.78,53.02-33.89,101.72-61.48,148.93,43.42-9.76,88.94-19.56,132.45-10.1,18.24,3.96,36.88,12.43,44.74,27.68s-1.23,37.45-19.88,39.37c14.49,4.83,24.47,18.79,23.32,32.58-1.15,13.8-13.33,26.27-28.46,29.13.03,0,.06.02.09.02Z"/>
  <path d="M675.18,519.05c-64.38-.46-37.24,9.2-115.28,1.98"/>
  <path d="M692.2,389.31c-64.38-.46-37.24,9.2-115.28,1.98"/>
  <path d="M685.52,452.8c-64.38-.46-47.58,9.2-125.62,1.98"/>
  <path d="M322.67,272.12l-1.05-254.67,55.6-.23c19.95-.08,36.17,12.23,36.24,27.5l.84,202.59c.06,13.49-14.2,24.49-31.84,24.57l-59.78.25Z"/>
  <path d="M28.33,161.36C11.35,156.88-.86,140.91.63,125.11c1.5-15.82,16.59-29.77,34.21-31.63-23.47-1.99-40.35-27.25-31.2-46.71,7.84-16.67,28.68-24.84,48-30.16C122.82-2.98,199.77-5.22,272.27,9.78c9.11,1.89,18.14,4.04,27.09,6.47,2.8.76,9.19,1.45,10.96,3.61,1.72,2.1.27,9.42.3,12.01.19,18.31.38,36.63.57,54.94.38,36.63.75,73.26,1.13,109.89.15,14.65.3,29.3.45,43.96.14,13.99.08,28.75-7.72,40.89-8,12.44-22.69,19.94-34.88,29.27-40.94,31.34-52.96,82.46-66.64,129.09-3.28,11.17-6.91,22.52-14.31,31.98s-19.35,16.83-32.24,16.5c-14.3-.37-26.68-10.25-32.35-22-5.67-11.75-5.75-25.04-4.41-37.79,5.56-53.04,33.47-101.86,60.86-149.18-43.38,9.94-88.86,19.93-132.4,10.65-18.26-3.89-36.93-12.28-44.85-27.5-7.93-15.22,1.07-37.46,19.71-39.46C9.03,218.35-1.01,204.44.08,190.63c1.09-13.8,13.22-26.33,28.34-29.25-.03,0-.06-.02-.09-.02Z"/>
</svg>