<?xml version="1.0" encoding="UTF-8"?>
<svg id="Ebene_1" data-name="Ebene 1" xmlns="http://www.w3.org/2000/svg" viewBox="0 0 842.04 595.44">
  <defs>
    <style>
      .cls-1 {
        fill: #e9476d;
      }

      .cls-2 {
        fill: #fff;
      }

      .cls-3, .cls-4 {
        fill: #1a1a1a;
      }

      .cls-4 {
        stroke: #1d1d1b;
        stroke-miterlimit: 10;
        stroke-width: .25px;
      }
    </style>
  </defs>
  <g>
    <circle class="cls-4" cx="398.93" cy="301.93" r="141.79"/>
    <path class="cls-2" d="M469.93,209.57c-4.22-3.17-8.65-5.98-13.23-8.45-.04-.02-.08-.05-.12-.06-24.18-13.95-51.23-17.36-76.54-12.09-24.78,5.14-47.9,18.27-65.08,40.75-3.35,4.39-6.37,8.96-9.03,13.65-.34.59-.67,1.17-.99,1.76-.04.08-.08.15-.12.22-.38.69-.74,1.38-1.1,2.06-.81,1.55-1.58,3.12-2.31,4.7-22.03,47.15-11.92,104.83,30.74,138.2,23.41,18.32,43.07,26.01,68.71,25.95-27.07,1.95-48.42-5.3-72.93-24.46-48.8-38.17-56.97-110.24-18.24-160.96,38.72-50.7,109.69-60.85,158.49-22.68.59.46,1.17.92,1.75,1.4Z"/>
    <path class="cls-2" d="M301.06,221.63c-3.7,4.43-7.03,9.11-10.01,13.98-.02.04-.06.08-.07.13-16.69,25.65-22.3,55.21-18.5,83.46,3.71,27.66,16.1,54.05,38.95,74.56,4.46,4,9.13,7.65,13.97,10.91.6.42,1.21.82,1.81,1.21.08.05.16.1.23.15.71.47,1.42.91,2.13,1.36,1.6,1,3.22,1.96,4.86,2.88,48.92,27.59,111.44,20.51,150.28-24.13,21.32-24.5,33.63-53.18,35.43-81.43.13,29.96-11.83,60.53-34.14,86.18-44.43,51.07-122.22,54.99-173.75,8.76-51.51-46.22-57.25-125.11-12.82-176.18.53-.62,1.07-1.22,1.62-1.83Z"/>
  </g>
  <path class="cls-1" d="M302.82,232.53c.3-.51.61-1.02.92-1.53-.66,1.08-1.29,2.17-1.91,3.27.32-.58.65-1.16.99-1.74Z"/>
  <path class="cls-1" d="M481.26,366.91s-.01.02-.03.03t.01-.02h.02Z"/>
  <path class="cls-2" d="M392.28,393.74s-36.31-35.47-50.2-84.57c-2.93-10.35-4.13-18.08-2.34-25.74,6.16-26.39,45.77-52.2,59.85-65.48,17.3,16.48,32.2,31.46,45.27,49.31,7.59,10.36,10.11,23.62,6.95,36.07-7.37,29.07-29.74,57.28-59.53,90.41Z"/>
  <path class="cls-2" d="M459.62,307.84c-6.91,26.73-30.62,49.71-54.54,81.73,23.92-32.03,47.96-63.35,51.72-92.69,1.42-11.05,3.35-15.1-3.22-24.09-12.56-17.18-16.34-24.51-32.56-39.27,17.51,13.85,19,17.84,32.89,32.77,12.21,13.13,10.19,24.18,5.71,41.55Z"/>
  <path class="cls-3" d="M405.08,338h-.02l-16.07-16.96-17.43,15.27,13.87-40.76c-3.56-2-5.97-5.81-5.97-10.19,0-6.44,5.22-11.66,11.66-11.66s11.67,5.22,11.67,11.66c0,4.93-3.05,9.15-7.37,10.85l9.66,41.79Z"/>
</svg>